<svg width="19" height="15" viewBox="0 0 19 15" fill="none" xmlns="http://www.w3.org/2000/svg">
<path d="M9.04993 4.64163L11.6788 7.00544L11.6913 6.88162C11.6913 5.63967 10.5689 4.63037 9.18763 4.63037L9.04993 4.64163Z" fill="white"/>
<path d="M9.1876 3.12945C11.491 3.12945 13.3605 4.81039 13.3605 6.88155C13.3605 7.36556 13.252 7.82707 13.0642 8.25105L15.5053 10.446C16.7655 9.50049 17.7587 8.27732 18.3721 6.88155C16.9241 3.58723 13.3647 1.25342 9.18763 1.25342C8.01922 1.25342 6.90092 1.44101 5.86188 1.7787L7.66455 3.39584C8.13603 3.23076 8.6493 3.12945 9.1876 3.12945Z" fill="white"/>
<path d="M0.841883 1.08471L2.74471 2.79566L3.12445 3.13711C1.74741 4.10515 0.65829 5.39213 0.00732422 6.88168C1.45115 10.176 5.01476 12.5098 9.18763 12.5098C10.4812 12.5098 11.7164 12.2847 12.8472 11.8757L13.2019 12.1946L15.6347 14.3858L16.6988 13.4328L1.90596 0.12793L0.841883 1.08471ZM5.45709 5.23078L6.7465 6.39017C6.70895 6.55152 6.68391 6.71284 6.68391 6.88168C6.68391 8.12364 7.8064 9.13294 9.18763 9.13294C9.37541 9.13294 9.55485 9.11042 9.73011 9.07665L11.0195 10.236C10.4645 10.4837 9.84697 10.6338 9.18763 10.6338C6.88421 10.6338 5.01476 8.95284 5.01476 6.88168C5.01476 6.28887 5.18168 5.73355 5.45709 5.23078Z" fill="white"/>
</svg>
