<svg width="23" height="21" viewBox="0 0 23 21" fill="none" xmlns="http://www.w3.org/2000/svg">
<g clip-path="url(#clip0_451_54)">
<path d="M2.58349 3.4917H20.9636C22.0443 3.4917 22.9236 4.28228 22.9236 5.25403V15.467C22.9236 16.4388 22.0443 17.2293 20.9636 17.2293H2.58349C1.50277 17.2293 0.623526 16.4388 0.623526 15.467V5.25403C0.623526 4.28228 1.50277 3.4917 2.58349 3.4917ZM2.83929 4.66659L3.10088 4.86244L10.9959 10.7737C11.4465 11.1111 12.1007 11.1111 12.5512 10.7737L20.4462 4.86244L20.7078 4.66659H2.83929ZM21.6169 5.51478L15.1842 10.3312L21.6169 14.1806V5.51478ZM2.58349 16.0545H20.9636C21.2793 16.0545 21.5433 15.8521 21.6038 15.5841L14.1366 11.1155L13.3873 11.6766C12.9197 12.0266 12.3466 12.2017 11.7735 12.2017C11.2004 12.2017 10.6273 12.0266 10.1598 11.6766L9.41045 11.1155L1.94324 15.584C2.00378 15.8521 2.26781 16.0545 2.58349 16.0545ZM1.93017 14.1806L8.36286 10.3312L1.93017 5.51478V14.1806Z" fill="white"/>
</g>
<defs>
<clipPath id="clip0_451_54">
<rect width="22.3001" height="20.0514" fill="white" transform="matrix(-1 0 0 1 22.9236 0.334961)"/>
</clipPath>
</defs>
</svg>
