<svg width="20" height="20" viewBox="0 0 20 20" fill="none" xmlns="http://www.w3.org/2000/svg">
<path fill-rule="evenodd" clip-rule="evenodd" d="M1.5 8.61041C1.5 4.46828 4.85786 1.11041 9 1.11041C13.1421 1.11041 16.5 4.46828 16.5 8.61041C16.5 12.7525 13.1421 16.1104 9 16.1104C4.85786 16.1104 1.5 12.7525 1.5 8.61041ZM9 0.110413C4.30558 0.110413 0.5 3.91599 0.5 8.61041C0.5 13.3048 4.30558 17.1104 9 17.1104C11.2564 17.1104 13.3074 16.2312 14.8292 14.7967L18.9964 18.964C19.1917 19.1592 19.5083 19.1592 19.7036 18.964C19.8988 18.7687 19.8988 18.4521 19.7036 18.2569L15.5158 14.0691C16.7543 12.5924 17.5 10.6885 17.5 8.61041C17.5 3.91599 13.6944 0.110413 9 0.110413Z" fill="black"/>
</svg>
