<svg width="214" height="50" viewBox="0 0 214 50" fill="none" xmlns="http://www.w3.org/2000/svg">
<ellipse cx="24.2769" cy="24.9657" rx="24.0625" ry="21.6361" fill="url(#paint0_linear_341_187)"/>
<path d="M33.4692 29.0688L34.538 22.962H27.8515V19.0009C27.8515 17.3298 28.7838 15.7 31.7787 15.7H34.8206V10.501C34.8206 10.501 32.0612 10.0884 29.4242 10.0884C23.9149 10.0884 20.3172 13.0138 20.3172 18.3077V22.962H14.1956V29.0688H20.3172V43.8322C21.5462 44.0014 22.8035 44.088 24.0843 44.088C25.3652 44.088 26.6225 44.0014 27.8515 43.8322V29.0688H33.4692Z" fill="white"/>
<path d="M138.649 25.2393C138.649 38.2113 128.133 48.7393 115.149 48.7393C102.166 48.7393 91.6494 38.2113 91.6494 25.2393C91.6494 12.2555 102.166 1.73926 115.149 1.73926C128.133 1.73926 138.649 12.2555 138.649 25.2393Z" fill="#283544"/>
<path d="M125.343 19.0361C125.213 19.1042 122.123 20.5414 122.123 23.728C122.268 27.3622 126.023 28.6367 126.087 28.6367C126.023 28.7048 125.52 30.3728 124.032 32.1213C122.851 33.6275 121.54 35.1461 119.549 35.1461C117.656 35.1461 116.976 34.1423 114.791 34.1423C112.444 34.1423 111.78 35.1461 109.984 35.1461C107.993 35.1461 106.585 33.5462 105.339 32.0541C103.721 30.1013 102.346 27.0367 102.297 24.0942C102.264 22.5349 102.621 21.0022 103.527 19.7003C104.805 17.8828 107.087 16.649 109.579 16.6083C111.489 16.5544 113.188 17.7068 114.354 17.7068C115.47 17.7068 117.558 16.6083 119.921 16.6083C120.94 16.6092 123.66 16.8666 125.343 19.0361ZM114.192 16.297C113.852 14.8731 114.791 13.4491 115.665 12.5408C116.781 11.4424 118.545 10.6968 120.066 10.6968C120.164 12.1207 119.548 13.5172 118.448 14.5343C117.461 15.6328 115.762 16.4598 114.192 16.297Z" fill="white"/>
<path d="M209.822 25.1852C209.822 23.4262 209.66 22.1426 209.309 20.8115H186.515V28.7507H199.895C199.625 30.7237 198.169 33.6949 194.931 35.6915L194.886 35.9573L202.093 40.8772L202.592 40.9211C207.178 37.1891 209.822 31.6982 209.822 25.1852Z" fill="#4285F4"/>
<path d="M186.514 46.1032C193.069 46.1032 198.571 44.2014 202.591 40.9212L194.93 35.6916C192.88 36.9514 190.128 37.8309 186.514 37.8309C180.094 37.8309 174.645 34.0991 172.702 28.9409L172.418 28.9622L164.924 34.0729L164.826 34.3129C168.818 41.3014 177.018 46.1032 186.514 46.1032Z" fill="#34A853"/>
<path d="M172.704 28.9413C172.191 27.6102 171.895 26.1839 171.895 24.7102C171.895 23.2364 172.191 21.8102 172.677 20.4791L172.663 20.1956L165.075 15.0029L164.827 15.107C163.182 18.007 162.237 21.2636 162.237 24.7102C162.237 28.1569 163.182 31.4133 164.827 34.3133L172.704 28.9413Z" fill="#FBBC05"/>
<path d="M186.514 11.5889C191.073 11.5889 194.148 13.3241 195.901 14.7742L202.753 8.87912C198.545 5.43245 193.069 3.31689 186.514 3.31689C177.018 3.31689 168.818 8.11843 164.826 15.1068L172.675 20.4789C174.645 15.3208 180.094 11.5889 186.514 11.5889Z" fill="#EB4335"/>
<defs>
<linearGradient id="paint0_linear_341_187" x1="24.2769" y1="3.32959" x2="24.2769" y2="46.4735" gradientUnits="userSpaceOnUse">
<stop stop-color="#18ACFE"/>
<stop offset="1" stop-color="#0163E0"/>
</linearGradient>
</defs>
</svg>
