<svg width="17" height="21" viewBox="0 0 17 21" fill="none" xmlns="http://www.w3.org/2000/svg">
<path d="M14.0572 9.45061V6.2752C14.0667 4.8384 13.4285 3.45687 12.2891 2.44941C11.1876 1.4632 9.74567 0.92334 8.21866 0.92334C8.19502 0.92334 8.16666 0.92334 8.14302 0.92334C4.88571 0.927591 2.23826 3.32509 2.23826 6.2752V9.45061C1.00908 9.58239 0.11084 10.5091 0.11084 11.6313V18.7643C0.11084 19.9758 1.18873 20.9748 2.53609 20.9748H13.7641C15.1115 20.9748 16.1894 19.9758 16.1894 18.7643V11.6313C16.1847 10.5133 15.2864 9.58239 14.0572 9.45061ZM3.17905 6.2752H3.18378C3.18378 3.79269 5.41047 1.76076 8.14775 1.76076H8.15248C9.45256 1.75651 10.7006 2.21986 11.6225 3.04453C12.5822 3.89896 13.1164 5.0637 13.107 6.2752V9.45486H12.0669V6.2752C12.0764 5.31025 11.6509 4.38356 10.8898 3.70342C10.1712 3.05728 9.19727 2.69171 8.18084 2.69171H8.15248C5.97778 2.69171 4.21912 4.29854 4.21912 6.27095V9.45486H3.17905V6.2752ZM11.1261 6.2752V9.45486H5.16936V6.2752C5.16936 4.77039 6.50255 3.54613 8.1572 3.54613H8.18557C8.95144 3.54613 9.68894 3.82244 10.2326 4.31129C10.8094 4.8299 11.1356 5.5398 11.1261 6.2752ZM15.2864 18.777C15.2864 19.521 14.6151 20.1246 13.7878 20.1246H2.55501C1.72768 20.1246 1.05636 19.521 1.05636 18.777V11.6526C1.05636 10.9087 1.72768 10.305 2.55501 10.305H13.7878C14.6151 10.305 15.2864 10.9087 15.2864 11.6526V18.777Z" fill="white"/>
<path d="M9.78345 14.9513C9.57544 14.2924 8.90885 13.8418 8.1477 13.8418C7.20691 13.8418 6.44104 14.5262 6.44104 15.3764C6.44104 16.0608 6.94217 16.6601 7.67494 16.8472V18.0374C7.67494 18.2712 7.88768 18.4625 8.1477 18.4625C8.40772 18.4625 8.62046 18.2712 8.62046 18.0374V16.8472C9.52343 16.6134 10.0482 15.7632 9.78345 14.9513ZM8.1477 16.0565C7.72695 16.0565 7.38656 15.7504 7.38656 15.3721C7.38656 14.9938 7.72695 14.6877 8.1477 14.6877C8.56846 14.6877 8.90884 14.9938 8.90884 15.3721C8.90884 15.7504 8.56846 16.0565 8.1477 16.0565Z" fill="white"/>
</svg>
