<svg width="17" height="21" viewBox="0 0 17 21" fill="none" xmlns="http://www.w3.org/2000/svg">
<path d="M9.78345 14.9513C9.57544 14.2924 8.90885 13.8418 8.1477 13.8418C7.20691 13.8418 6.44104 14.5262 6.44104 15.3764C6.44104 16.0608 6.94217 16.6601 7.67494 16.8472V18.0374C7.67494 18.2712 7.88768 18.4625 8.1477 18.4625C8.40772 18.4625 8.62046 18.2712 8.62046 18.0374V16.8472C9.52343 16.6134 10.0482 15.7632 9.78345 14.9513ZM8.1477 16.0565C7.72695 16.0565 7.38656 15.7504 7.38656 15.3721C7.38656 14.9938 7.72695 14.6877 8.1477 14.6877C8.56846 14.6877 8.90884 14.9938 8.90884 15.3721C8.90884 15.7504 8.56846 16.0565 8.1477 16.0565Z" fill="white"/>
<path d="M14.0571 9.45061V6.2752C14.0666 4.8384 13.4283 3.45687 12.289 2.44941C11.1875 1.4632 9.74555 0.92334 8.21854 0.92334C8.1949 0.92334 8.16654 0.92334 8.1429 0.92334C4.88559 0.927591 2.23813 3.32509 2.23813 6.2752V9.45061C1.00896 9.58239 0.110718 10.5091 0.110718 11.6313V18.7643C0.110718 19.9758 1.18861 20.9748 2.53597 20.9748H13.764C15.1114 20.9748 16.1893 19.9758 16.1893 18.7643V11.6313C16.1845 10.5133 15.2863 9.58239 14.0571 9.45061ZM3.17893 6.2752H3.18365C3.18365 3.79269 5.41035 1.76076 8.14763 1.76076H8.15235C9.45244 1.75651 10.7005 2.21986 11.6224 3.04453C12.5821 3.89896 13.1163 5.0637 13.1069 6.2752V9.45486H12.0668V6.2752C12.0763 5.31025 11.6508 4.38356 10.8896 3.70342C10.171 3.05728 9.19715 2.69171 8.18072 2.69171H8.15235C5.97766 2.69171 4.219 4.29854 4.219 6.27095V9.45486H3.17893V6.2752ZM11.126 6.2752V9.45486H5.16924V6.2752C5.16924 4.77039 6.50242 3.54613 8.15708 3.54613H8.18545C8.95132 3.54613 9.68882 3.82244 10.2325 4.31129C10.8093 4.8299 11.1355 5.5398 11.126 6.2752ZM15.2863 18.777C15.2863 19.521 14.615 20.1246 13.7876 20.1246H2.55488C1.72755 20.1246 1.05624 19.521 1.05624 18.777V11.6526C1.05624 10.9087 1.72755 10.305 2.55488 10.305H13.7876C14.615 10.305 15.2863 10.9087 15.2863 11.6526V18.777Z" fill="white"/>
</svg>
