<svg width="19" height="15" viewBox="0 0 19 15" fill="none" xmlns="http://www.w3.org/2000/svg">
<path d="M9.04993 4.97708L11.6788 7.34089L11.6913 7.21707C11.6913 5.97512 10.5689 4.96582 9.18763 4.96582L9.04993 4.97708Z" fill="white"/>
<path d="M9.1876 3.4649C11.491 3.4649 13.3605 5.14584 13.3605 7.217C13.3605 7.70101 13.252 8.16252 13.0642 8.58649L15.5053 10.7815C16.7655 9.83594 17.7587 8.61277 18.3721 7.217C16.9241 3.92268 13.3647 1.58887 9.18763 1.58887C8.01922 1.58887 6.90092 1.77646 5.86188 2.11415L7.66455 3.73128C8.13603 3.5662 8.6493 3.4649 9.1876 3.4649Z" fill="white"/>
<path d="M0.841883 1.42016L2.74471 3.13111L3.12445 3.47256C1.74741 4.4406 0.65829 5.72758 0.00732422 7.21713C1.45115 10.5115 5.01476 12.8453 9.18763 12.8453C10.4812 12.8453 11.7164 12.6201 12.8472 12.2111L13.2019 12.5301L15.6347 14.7213L16.6988 13.7683L1.90596 0.463379L0.841883 1.42016ZM5.45709 5.56623L6.7465 6.72562C6.70895 6.88697 6.68391 7.04829 6.68391 7.21713C6.68391 8.45909 7.8064 9.46838 9.18763 9.46838C9.37541 9.46838 9.55485 9.44587 9.73011 9.4121L11.0195 10.5715C10.4645 10.8191 9.84697 10.9692 9.18763 10.9692C6.88421 10.9692 5.01476 9.28828 5.01476 7.21713C5.01476 6.62432 5.18168 6.06899 5.45709 5.56623Z" fill="white"/>
</svg>
