<svg width="19" height="15" viewBox="0 0 19 15" fill="none" xmlns="http://www.w3.org/2000/svg">
<path d="M9.05005 4.64163L11.679 7.00544L11.6915 6.88162C11.6915 5.63967 10.569 4.63037 9.18775 4.63037L9.05005 4.64163Z" fill="white"/>
<path d="M9.18772 3.12945C11.4911 3.12945 13.3606 4.81039 13.3606 6.88155C13.3606 7.36556 13.2521 7.82707 13.0643 8.25105L15.5055 10.446C16.7656 9.50049 17.7588 8.27732 18.3722 6.88155C16.9242 3.58723 13.3648 1.25342 9.18776 1.25342C8.01934 1.25342 6.90104 1.44101 5.862 1.7787L7.66468 3.39584C8.13616 3.23076 8.64942 3.12945 9.18772 3.12945Z" fill="white"/>
<path d="M0.842005 1.08471L2.74483 2.79566L3.12457 3.13711C1.74753 4.10515 0.658412 5.39213 0.00744629 6.88168C1.45127 10.176 5.01488 12.5098 9.18775 12.5098C10.4813 12.5098 11.7165 12.2847 12.8474 11.8757L13.2021 12.1946L15.6349 14.3858L16.6989 13.4328L1.90608 0.12793L0.842005 1.08471ZM5.45721 5.23078L6.74663 6.39017C6.70907 6.55152 6.68403 6.71284 6.68403 6.88168C6.68403 8.12364 7.80652 9.13294 9.18775 9.13294C9.37553 9.13294 9.55497 9.11042 9.73023 9.07665L11.0196 10.236C10.4646 10.4837 9.84709 10.6338 9.18775 10.6338C6.88433 10.6338 5.01488 8.95284 5.01488 6.88168C5.01488 6.28887 5.18181 5.73355 5.45721 5.23078Z" fill="white"/>
</svg>
