<svg width="17" height="21" viewBox="0 0 17 21" fill="none" xmlns="http://www.w3.org/2000/svg">
<path d="M14.0571 8.78606V5.61065C14.0666 4.17385 13.4283 2.79232 12.289 1.78486C11.1875 0.798651 9.74555 0.258789 8.21854 0.258789C8.1949 0.258789 8.16654 0.258789 8.1429 0.258789C4.88559 0.26304 2.23813 2.66054 2.23813 5.61065V8.78606C1.00896 8.91784 0.110718 9.84453 0.110718 10.9668V18.0997C0.110718 19.3112 1.18861 20.3102 2.53597 20.3102H13.764C15.1114 20.3102 16.1893 19.3112 16.1893 18.0997V10.9668C16.1845 9.84878 15.2863 8.91784 14.0571 8.78606ZM3.17893 5.61065H3.18365C3.18365 3.12813 5.41035 1.09621 8.14763 1.09621H8.15235C9.45244 1.09196 10.7005 1.55531 11.6224 2.37998C12.5821 3.23441 13.1163 4.39915 13.1069 5.61065V8.79031H12.0668V5.61065C12.0763 4.6457 11.6508 3.71901 10.8896 3.03887C10.171 2.39273 9.19715 2.02716 8.18072 2.02716H8.15235C5.97766 2.02716 4.219 3.63399 4.219 5.6064V8.79031H3.17893V5.61065ZM11.126 5.61065V8.79031H5.16924V5.61065C5.16924 4.10584 6.50242 2.88158 8.15708 2.88158H8.18545C8.95132 2.88158 9.68882 3.15789 10.2325 3.64674C10.8093 4.16535 11.1355 4.87525 11.126 5.61065ZM15.2863 18.1125C15.2863 18.8564 14.615 19.46 13.7876 19.46H2.55488C1.72755 19.46 1.05624 18.8564 1.05624 18.1125V10.988C1.05624 10.2441 1.72755 9.64049 2.55488 9.64049H13.7876C14.615 9.64049 15.2863 10.2441 15.2863 10.988V18.1125Z" fill="white"/>
<path d="M9.78345 14.2867C9.57544 13.6278 8.90885 13.1772 8.1477 13.1772C7.20691 13.1772 6.44104 13.8616 6.44104 14.7118C6.44104 15.3962 6.94217 15.9956 7.67494 16.1826V17.3729C7.67494 17.6067 7.88768 17.798 8.1477 17.798C8.40772 17.798 8.62046 17.6067 8.62046 17.3729V16.1826C9.52343 15.9488 10.0482 15.0986 9.78345 14.2867ZM8.1477 15.392C7.72695 15.392 7.38656 15.0859 7.38656 14.7076C7.38656 14.3292 7.72695 14.0232 8.1477 14.0232C8.56846 14.0232 8.90884 14.3292 8.90884 14.7076C8.90884 15.0859 8.56846 15.392 8.1477 15.392Z" fill="white"/>
</svg>
