<svg width="872" height="407" viewBox="0 0 872 407" fill="none" xmlns="http://www.w3.org/2000/svg">
<g filter="url(#filter0_d_340_182)">
<path d="M431.765 0.44458H847.09C858.135 0.44458 867.09 9.39889 867.09 20.4446V378.086C867.09 389.132 858.135 398.086 847.09 398.086H673.818C662.773 398.086 653.818 389.132 653.818 378.086V314.767C653.818 303.721 644.864 294.767 633.818 294.767H237.271C226.226 294.767 217.271 303.721 217.271 314.767V378.086C217.271 389.132 208.317 398.086 197.271 398.086H24C12.9543 398.086 4 389.132 4 378.086V20.4446C4 9.39889 12.9543 0.444601 24 0.444601L431.765 0.44458Z" fill="#D9D9D9" fill-opacity="0.7" shape-rendering="crispEdges"/>
<path d="M431.765 0.94458H847.09C857.859 0.94458 866.59 9.67503 866.59 20.4446V378.086C866.59 388.855 857.859 397.586 847.09 397.586H673.818C663.049 397.586 654.318 388.855 654.318 378.086V314.767C654.318 303.445 645.14 294.267 633.818 294.267H237.271C225.95 294.267 216.771 303.445 216.771 314.767V378.086C216.771 388.855 208.041 397.586 197.271 397.586H24C13.2304 397.586 4.5 388.855 4.5 378.086V20.4446C4.5 9.67504 13.2304 0.944601 24 0.944601L431.765 0.94458Z" stroke="black" stroke-opacity="0.2" shape-rendering="crispEdges"/>
</g>
<defs>
<filter id="filter0_d_340_182" x="0" y="0.44458" width="871.09" height="405.641" filterUnits="userSpaceOnUse" color-interpolation-filters="sRGB">
<feFlood flood-opacity="0" result="BackgroundImageFix"/>
<feColorMatrix in="SourceAlpha" type="matrix" values="0 0 0 0 0 0 0 0 0 0 0 0 0 0 0 0 0 0 127 0" result="hardAlpha"/>
<feOffset dy="4"/>
<feGaussianBlur stdDeviation="2"/>
<feComposite in2="hardAlpha" operator="out"/>
<feColorMatrix type="matrix" values="0 0 0 0 0 0 0 0 0 0 0 0 0 0 0 0 0 0 0.25 0"/>
<feBlend mode="normal" in2="BackgroundImageFix" result="effect1_dropShadow_340_182"/>
<feBlend mode="normal" in="SourceGraphic" in2="effect1_dropShadow_340_182" result="shape"/>
</filter>
</defs>
</svg>
